<?xml version="1.0" encoding="UTF-8"?>
<!DOCTYPE svg PUBLIC "-//W3C//DTD SVG 1.1//EN" "http://www.w3.org/Graphics/SVG/1.1/DTD/svg11.dtd">
<!-- Creator: CorelDRAW 2021 (64 Bit) -->
<svg xmlns="http://www.w3.org/2000/svg" xml:space="preserve" width="296.8mm" height="197.86mm" version="1.1" style="shape-rendering:geometricPrecision; text-rendering:geometricPrecision; image-rendering:optimizeQuality; fill-rule:evenodd; clip-rule:evenodd"
viewBox="0 0 29680 19786"
 xmlns:xlink="http://www.w3.org/1999/xlink"
 xmlns:xodm="http://www.corel.com/coreldraw/odm/2003">
 <defs>
  <style type="text/css">
   <![CDATA[
    .fil2 {fill:#17408F}
    .fil0 {fill:#17408F;fill-rule:nonzero}
    .fil1 {fill:white;fill-rule:nonzero}
   ]]>
  </style>
 </defs>
 <g id="Camada_x0020_1">
  <metadata id="CorelCorpID_0Corel-Layer"/>
  <g id="_2651609675152">
   <rect id="rect997" class="fil0" x="-1.9" y="4.29" width="29679.64" height="19786.44"/>
   <rect id="rect999" class="fil1" x="888.49" y="894.68" width="27898.86" height="18005.66"/>
   <g id="text1005" aria-label="CPLP">
    <path id="path1029" class="fil0" d="M12564.42 15493.12c-117.52,-35.64 -320.56,-99.72 -623.28,-99.72 -491.52,0 -776.44,181.64 -929.56,320.55 -167.4,153.16 -384.65,448.78 -384.65,982.99 0,224.39 39.19,377.55 67.68,466.58 128.22,384.65 430.94,658.88 822.73,762.19 203,56.98 406.04,56.98 477.27,56.98 242.18,0 363.3,-24.94 598.34,-85.47l-28.49 -448.78c-49.88,24.94 -78.38,35.6 -135.36,53.43 -110.42,32.05 -288.48,56.99 -406.04,56.99 -370.4,3.74 -658.88,-192.34 -787.09,-541.36 -56.99,-156.71 -60.54,-309.86 -60.54,-366.85 0,-117.52 17.8,-544.91 395.34,-747.94 178.1,-96.17 356.16,-99.73 427.39,-99.73 64.13,0 238.63,3.74 420.28,71.23 35.64,14.25 71.23,32.05 106.87,49.89l39.11 -430.98z"/>
    <path id="path1031" class="fil0" d="M13100.62 15432.58l0 2514.48 509.31 0 0 -950.95c71.23,3.74 146.01,3.74 217.24,3.74 220.84,0 438.08,-24.94 630.39,-149.6 217.25,-142.46 338.36,-381.1 338.36,-641.08 3.55,-231.49 -96.17,-388.2 -146.02,-455.88 -224.38,-302.72 -612.58,-309.86 -715.86,-316.97 -56.99,-3.74 -117.52,-3.74 -174.51,-3.74l-658.91 0zm502.17 388.2c49.88,0 99.72,-3.74 153.15,-3.74 178.06,0 373.96,21.39 466.58,203 39.18,81.93 42.73,153.16 42.73,188.76 0,89.03 -28.49,156.7 -42.73,181.64 -49.88,106.87 -156.71,203 -409.59,210.15 -67.68,3.73 -138.91,0 -206.55,-3.74l-3.59 -776.07z"/>
    <polygon id="path1033" class="fil0" points="15887.72,15432.58 15374.85,15432.58 15374.85,17947.06 16860.05,17947.06 16860.05,17519.67 15887.72,17519.67 "/>
    <path id="path1035" class="fil0" d="M17353.51 15432.58l0 2514.48 509.31 0 0 -950.95c71.23,3.74 146.01,3.74 217.25,3.74 220.83,0 438.08,-24.94 630.38,-149.6 217.25,-142.46 338.36,-381.1 338.36,-641.08 3.74,-231.49 -96.17,-388.2 -146.02,-455.88 -224.38,-302.72 -612.58,-309.86 -715.86,-316.97 -56.98,-3.74 -117.52,-3.74 -174.51,-3.74l-658.91 0zm502.17 388.2c49.88,0 99.72,-3.74 153.15,-3.74 178.1,0 373.96,21.39 466.58,203 39.18,81.93 42.74,153.16 42.74,188.76 0,89.03 -28.5,156.7 -42.74,181.64 -49.88,106.87 -156.71,203 -409.59,210.15 -67.68,3.73 -138.91,0 -206.59,-3.74l-3.55 -776.07z"/>
   </g>
   <g id="g1027">
    <circle id="circle1007" class="fil2" cx="14837.91" cy="8144.05" r="872.14"/>
    <g id="g1025">
     <path id="path1009" class="fil2" d="M13774.3 7569.71c105.75,0 191.49,-85.74 191.49,-191.44 0.14,-598.53 11.96,-1269.97 19.18,-1742.23 -9.91,-864.05 59.82,-1753.9 512.6,-1767.66 292.7,69.93 538.85,370.11 738.63,561.89l1094.76 -1418.64c-467.36,-441.86 -1146.69,-1069.25 -1877.66,-1184.23 -333.8,-52.5 -701.84,33.39 -981.98,251.46 -860.12,883.79 -838.62,2678.25 118.16,5349.14 0,0.03 0.07,0.22 0.07,0.3 22.58,83.42 98.34,141.41 184.79,141.41 0,0 0,0 0,0l-0.04 0z"/>
     <path id="path1011" class="fil2" d="M15412.24 7080.44c0,105.75 85.74,191.48 191.45,191.48 598.53,0.19 1269.97,11.97 1742.23,19.19 864.04,-9.91 1753.89,59.82 1767.65,512.6 -69.92,292.7 -370.1,538.85 -561.88,738.63l1418.64 1094.76c441.85,-467.36 1069.25,-1146.69 1184.23,-1877.66 52.5,-333.8 -33.39,-701.84 -251.46,-981.98 -883.79,-860.12 -2678.25,-838.62 -5349.14,118.15 0,-0.03 -0.23,0 -0.26,0.04 -83.46,22.59 -141.42,98.34 -141.42,184.83 0,0 0,0 0,0l-0.04 -0.04z"/>
     <path id="path1013" class="fil2" d="M15901.51 8718.38c0,0.04 0,0.04 0,0.04 -105.7,0 -191.44,85.74 -191.44,191.45 -0.15,598.52 -11.97,1269.97 -19.18,1742.22 9.91,864.05 -59.83,1753.9 -512.61,1767.66 -292.7,-69.92 -538.85,-370.1 -738.63,-561.89l-1094.75 1418.64c467.35,441.86 1146.69,1069.26 1877.66,1184.23 333.79,52.5 701.84,-33.39 981.98,-251.45 860.12,-883.79 838.62,-2678.26 -118.16,-5349.14 0,-0.04 -0.08,-0.23 -0.08,-0.3 -22.58,-83.46 -98.34,-141.46 -184.79,-141.46 0,0 0,0 0,0z"/>
     <path id="path1015" class="fil2" d="M14263.57 9207.65c0.04,-105.7 -85.7,-191.44 -191.41,-191.44 -598.52,-0.19 -1269.97,-11.97 -1742.22,-19.18 -864.05,9.91 -1753.9,-59.83 -1767.66,-512.61 69.93,-292.7 370.11,-538.85 561.89,-738.63l-1418.64 -1094.75c-441.86,467.35 -1069.25,1146.69 -1184.23,1877.66 -52.5,333.79 33.42,701.84 251.45,981.98 883.79,860.12 2678.26,838.62 5349.15,-118.16 0,0 0.18,-0.04 0.26,-0.04 83.46,-22.62 141.41,-98.38 141.41,-184.83 0,0 0,0 0,0z"/>
     <path id="path1017" class="fil2" d="M14491.96 6985.88c35.9,35.86 84.66,56.05 135.4,56.05 50.77,0 99.5,-20.19 135.39,-56.05 423.35,-423.09 906.49,-889.55 1245.52,-1218.37 603.95,-617.97 1282.49,-1197.88 1612.36,-887.46 157.54,256.44 119.32,642.73 124.97,919.58l1777.26 -229.03c-18.02,-642.91 -54.74,-1566.89 -490.32,-2165.09 -198.88,-273.14 -519.89,-472.63 -872.16,-516.56 -1233.14,16.75 -2486.81,1300.82 -3698.86,3865.96 -0.07,0.07 -0.18,0.19 -0.18,0.3 -16.61,28.94 -25.39,61.84 -25.39,95.27 0,50.78 20.19,99.5 56.05,135.36l-0.04 0.04z"/>
     <path id="path1019" class="fil2" d="M15996.12 7798.1c-35.9,35.86 -56.09,84.62 -56.09,135.36 0,50.78 20.19,99.5 56.09,135.39 423.08,423.35 889.54,906.49 1218.37,1245.52 617.97,603.95 1197.88,1282.5 887.45,1612.37 -256.43,157.53 -642.73,119.31 -919.57,124.96l229.02 1777.26c642.91,-18.02 1566.9,-54.74 2165.09,-490.31 273.15,-198.89 472.63,-519.9 516.57,-872.17 -16.76,-1233.14 -1300.82,-2486.8 -3865.97,-3698.85 -0.11,-0.04 -0.22,-0.15 -0.33,-0.19 -28.98,-16.6 -61.85,-25.43 -95.28,-25.43 -50.77,0 -99.5,20.19 -135.39,56.09l0.04 0z"/>
     <path id="path1021" class="fil2" d="M15183.86 9302.25c-35.86,-35.85 -84.62,-56.05 -135.36,-56.05 -50.78,0 -99.5,20.2 -135.4,56.05 -423.35,423.09 -906.48,889.55 -1245.51,1218.37 -603.95,617.98 -1282.5,1197.88 -1612.37,887.46 -157.53,-256.43 -119.32,-642.73 -124.96,-919.57l-1777.27 229.02c18.03,642.91 54.74,1566.9 490.32,2165.09 198.89,273.15 519.89,472.63 872.16,516.57 1233.14,-16.76 2486.81,-1300.82 3698.86,-3865.97 0.04,-0.07 0.19,-0.22 0.19,-0.3 16.6,-28.97 25.39,-61.84 25.39,-95.27 0,-50.78 -20.2,-99.54 -56.05,-135.4z"/>
     <path id="path1023" class="fil2" d="M13679.7 8490c35.93,-35.86 56.13,-84.58 56.13,-135.36 0,-50.78 -20.2,-99.5 -56.09,-135.36 -423.09,-423.35 -889.55,-906.49 -1218.37,-1245.52 -617.97,-603.95 -1197.88,-1282.49 -887.46,-1612.36 256.44,-157.53 642.73,-119.32 919.58,-124.97l-229.03 -1777.26c-642.91,18.02 -1566.89,54.74 -2165.09,490.32 -273.14,198.88 -472.63,519.89 -516.56,872.16 16.75,1233.14 1300.82,2486.81 3865.96,3698.86 0.11,0.03 0.22,0.11 0.34,0.18 28.98,16.61 61.88,25.39 95.31,25.39 50.74,0 99.5,-20.19 135.36,-56.05l-0.08 -0.03z"/>
    </g>
   </g>
  </g>
 </g>
</svg>
